<svg xmlns="http://www.w3.org/2000/svg" xmlns:svg="http://www.w3.org/2000/svg" id="http://ethon.consensys.net/icons/Block_icon" width="64" height="64" version="1.1" viewBox="-14 -14 134 134"><metadata id="metadata11"/><style id="style2" type="text/css">.st0{fill:#333}</style><path id="path4488" d="M 81,52.1 H 70 V 47 c 0,-1.7 -1.3,-3 -3,-3 H 39 c -1.7,0 -3,1.3 -3,3 v 5.1 H 25 c -0.6,0 -1,0.4 -1,1 0,0.6 0.4,1 1,1 H 36 V 59 c 0,1.7 1.3,3 3,3 h 28 c 1.7,0 3,-1.3 3,-3 v -4.9 h 11 c 0.6,0 1,-0.4 1,-1 0,-0.6 -0.4,-1 -1,-1 z" class="st0" style="fill:#fff;opacity:.01"/><path id="path4" d="M81,52.1H70V47c0-1.7-1.3-3-3-3H39c-1.7,0-3,1.3-3,3v5.1H25c-0.6,0-1,0.4-1,1s0.4,1,1,1h11 V59c0,1.7,1.3,3,3,3h28c1.7,0,3-1.3,3-3v-4.9h11c0.6,0,1-0.4,1-1S81.6,52.1,81,52.1z M68,59c0,0.6-0.4,1-1,1H39c-0.6,0-1-0.4-1-1 v-4.9h3c0.6,0,1-0.4,1-1s-0.4-1-1-1h-3V47c0-0.6,0.4-1,1-1h28c0.6,0,1,0.4,1,1v5.1h-3c-0.6,0-1,0.4-1,1s0.4,1,1,1h3V59z" class="st0"/></svg>