<svg xmlns="http://www.w3.org/2000/svg" xmlns:svg="http://www.w3.org/2000/svg" id="http://ethon.consensys.net/icons/LightNode_icon" width="64" height="64" version="1.1" viewBox="-14 -14 134 134"><metadata id="metadata11"/><style id="style2" type="text/css">.st0{fill:#414042}</style><path id="path908" d="m 65.7,64.299999 c 2.7,-3 4.3,-6.9 4.3,-11.3 0,-4.3 -1.6,-8.299998 -4.3,-11.299999 l 20,-20 c 0.4,-0.4 0.4,-1 0,-1.4 -0.4,-0.4 -1,-0.4 -1.4,0 l -20,20 C 61.3,37.6 57.4,36 53,36 c -4.3,0 -8.3,1.6 -11.3,4.3 l -20,-20 c -0.4,-0.4 -1,-0.4 -1.4,0 -0.4,0.4 -0.4,1 0,1.4 l 20,20 c -2.7,3.000001 -4.3,6.9 -4.3,11.299999 0,4.3 1.6,8.3 4.3,11.3 l -20,20.000002 c -0.4,0.399999 -0.4,0.999999 0,1.4 0.2,0.2 0.5,0.3 0.7,0.3 0.2,0 0.5,-0.100005 0.7,-0.3 l 20,-20.000002 C 44.7,68.400001 48.6,70 53,70 c 4.3,0 8.3,-1.599999 11.3,-4.300001 l 20,20.000002 c 0.2,0.2 0.5,0.3 0.7,0.3 0.2,0 0.5,-0.100005 0.7,-0.3 0.4,-0.400001 0.4,-1.000001 0,-1.4 z" class="st0" style="fill:#fff;stroke-width:1;opacity:.01"/><path id="path4" d="M65.7,64.3c2.7-3,4.3-6.9,4.3-11.3c0-4.3-1.6-8.3-4.3-11.3l20-20c0.4-0.4,0.4-1,0-1.4 s-1-0.4-1.4,0l-20,20c-3-2.7-6.9-4.3-11.3-4.3c-4.3,0-8.3,1.6-11.3,4.3l-20-20c-0.4-0.4-1-0.4-1.4,0s-0.4,1,0,1.4l20,20 c-2.7,3-4.3,6.9-4.3,11.3c0,4.3,1.6,8.3,4.3,11.3l-20,20c-0.4,0.4-0.4,1,0,1.4c0.2,0.2,0.5,0.3,0.7,0.3s0.5-0.1,0.7-0.3l20-20 c3,2.7,6.9,4.3,11.3,4.3c4.3,0,8.3-1.6,11.3-4.3l20,20c0.2,0.2,0.5,0.3,0.7,0.3s0.5-0.1,0.7-0.3c0.4-0.4,0.4-1,0-1.4L65.7,64.3z M38,53c0-8.3,6.7-15,15-15s15,6.7,15,15s-6.7,15-15,15S38,61.3,38,53z" class="st0"/></svg>