<svg xmlns="http://www.w3.org/2000/svg" xmlns:svg="http://www.w3.org/2000/svg" id="http://ethon.consensys.net/icons/Uncle_icon" width="64" height="64" version="1.1" viewBox="-14 -14 134 134"><metadata id="metadata11"/><style id="style2" type="text/css">.st0{fill:#333}</style><path id="path4602" d="m 94,33 c 0,-0.6 -0.399999,-1 -0.999999,-1 h -14 c -1.700001,0 -3,1.3 -3,3 v 5.1 H 70 V 35 c 0,-1.7 -1.299999,-3 -3,-3 H 39 c -1.699999,0 -3,1.3 -3,3 v 5.1 H 30.000001 V 35 C 30.000001,33.3 28.7,32 27,32 H 13 c -0.6,0 -1,0.4 -1,1 0,2.15397 0,14.32277 0,16 0,0.6 0.4,1 1,1 h 14 c 1.7,0 3.000001,-1.3 3.000001,-3 V 42.1 H 36 V 47 c 0,1.7 1.300001,3 3,3 h 12.800001 v 6 H 39 c -1.699999,0 -3,1.3 -3,3 v 12 c 0,1.7 1.300001,3 3,3 h 28 c 1.700001,0 3,-1.3 3,-3 V 59 c 0,-1.7 -1.299999,-3 -3,-3 H 53.8 V 50 H 67 c 1.700001,0 3,-1.3 3,-3 v -4.9 h 6.000001 V 47 c 0,1.7 1.299999,3 3,3 h 14 C 93.600001,50 94,49.6 94,49 94,46.50981 94,35.06949 94,33 Z" class="st0" style="fill:#fff;stroke-width:1;opacity:.01"/><path id="path4" d="M93,48H79c-0.6,0-1-0.4-1-1v-4.9h3c0.6,0,1-0.4,1-1s-0.4-1-1-1h-3V35c0-0.6,0.4-1,1-1H93 c0.6,0,1-0.4,1-1s-0.4-1-1-1H79c-1.7,0-3,1.3-3,3v5.1h-6V35c0-1.7-1.3-3-3-3H39c-1.7,0-3,1.3-3,3v5.1h-6V35c0-1.7-1.3-3-3-3H13 c-0.6,0-1,0.4-1,1s0.4,1,1,1H27c0.6,0,1,0.4,1,1v5.1h-3c-0.6,0-1,0.4-1,1s0.4,1,1,1h3V47c0,0.6-0.4,1-1,1H13c-0.6,0-1,0.4-1,1 s0.4,1,1,1H27c1.7,0,3-1.3,3-3v-4.9h6V47c0,1.7,1.3,3,3,3h12.8V56H39c-1.7,0-3,1.3-3,3v12c0,1.7,1.3,3,3,3h28c1.7,0,3-1.3,3-3V59 c0-1.7-1.3-3-3-3H53.8V50H67c1.7,0,3-1.3,3-3v-4.9h6V47c0,1.7,1.3,3,3,3H93c0.6,0,1-0.4,1-1S93.5,48,93,48z M67,58c0.6,0,1,0.4,1,1 v12c0,0.6-0.4,1-1,1H39c-0.6,0-1-0.4-1-1V59c0-0.6,0.4-1,1-1h12.8v2.9c0,0.6,0.4,1,1,1s1-0.4,1-1V58H67z M68,47c0,0.6-0.4,1-1,1 H53.8v-3.2c0-0.6-0.4-1-1-1s-1,0.4-1,1V48H39c-0.6,0-1-0.4-1-1v-4.9h3c0.6,0,1-0.4,1-1s-0.4-1-1-1h-3V35c0-0.6,0.4-1,1-1h28 c0.6,0,1,0.4,1,1v5.1h-3c-0.6,0-1,0.4-1,1s0.4,1,1,1h3V47z" class="st0"/></svg>